<svg width="292" height="232" viewBox="0 0 292 232" fill="none" xmlns="http://www.w3.org/2000/svg">
<g clip-path="url(#clip0)">
<path opacity="0.1" d="M171.248 39.2071C152.772 38.5651 135.172 32.6051 118.368 26.083C101.565 19.5608 84.9216 12.334 66.8879 8.87897C55.2889 6.65643 42.0226 6.34259 32.6789 12.5566C23.6834 18.548 20.7772 28.8618 19.2156 38.4424C18.0395 45.6493 17.3486 53.2327 20.5717 59.9803C22.807 64.665 26.778 68.6022 29.5215 73.1044C39.0765 88.7163 32.3249 107.969 21.9705 123.213C17.1174 130.365 11.4792 137.193 7.73366 144.799C3.98817 152.405 2.25245 161.133 5.52975 168.899C8.78137 176.602 16.5264 182.377 24.9138 186.442C41.9541 194.702 62.0262 197.064 81.6129 198.403C124.957 201.367 168.53 200.083 211.989 198.799C228.073 198.323 244.225 197.84 260.046 195.355C268.833 193.975 277.903 191.786 284.283 186.497C292.38 179.783 294.387 168.414 288.962 159.997C279.859 145.878 254.705 142.371 248.333 127.216C244.833 118.876 248.43 109.587 253.517 101.849C264.434 85.2556 282.73 70.6964 283.695 51.7292C284.358 38.6992 275.559 25.655 261.959 19.4895C247.705 13.0045 227.933 13.8262 217.421 24.5223C206.59 35.5437 187.56 39.772 171.248 39.2071Z" fill="#FF500A"/>
<path d="M124.312 197.004L26.5983 196.528L16.8892 173.769L51.2209 171.278L45.2373 146.325L113.141 137.529L48.1178 114.938L53.8616 113.575L158.419 130.622L152.66 169.563L144.43 190.964L124.312 197.004Z" fill="#FF500A"/>
<path d="M28.0969 186.996C28.0969 186.996 34.092 186.037 37.689 190.271C37.689 190.271 35.0512 192.348 29.3759 189.472L28.0969 186.996Z" fill="#FF500A"/>
<path d="M27.4688 186.901C27.4688 186.901 23.6434 191.606 25.5276 196.844C25.5276 196.844 28.645 195.597 28.9847 189.247L27.4688 186.901Z" fill="#FF500A"/>
<path d="M24.0317 179.167C24.0317 179.167 26.4298 174.77 36.0219 180.925C36.0219 180.925 34.7429 183.88 30.5064 183.641C26.2699 183.401 25.1508 181.484 24.0317 179.167Z" fill="#FF500A"/>
<path d="M23.4122 178.85C23.4122 178.85 18.4363 178.28 17.9539 189.664C17.9539 189.664 21.1084 190.317 23.3494 186.716C25.5904 183.116 24.6712 181.096 23.4122 178.85Z" fill="#FF500A"/>
<path d="M20.5146 169.769C20.5146 169.769 23.3123 162.02 33.464 167.532C33.464 167.532 31.1459 174.642 21.5538 172.405L20.5146 169.769Z" fill="#FF500A"/>
<path d="M17.3972 158.186C17.3972 158.186 22.6729 150.357 32.0252 157.615C32.0252 157.615 28.7479 164.965 18.1966 160.97L17.3972 158.186Z" fill="#FF500A"/>
<path d="M16.2781 147.161C16.2781 147.161 22.433 139.968 31.694 147.161C31.694 147.161 25.8588 153.472 16.2781 148.998V147.161Z" fill="#FF500A"/>
<path d="M15.3188 136.454C15.3188 136.454 21.5537 128.944 30.4264 136.054C30.4264 136.054 23.3922 142.685 15.3188 138.211V136.454Z" fill="#FF500A"/>
<path d="M15.8784 126.947C15.8784 126.947 22.4444 117.281 30.7462 123.832C30.7462 123.832 23.712 132.14 15.8784 128.785V126.947Z" fill="#FF500A"/>
<path d="M17.3972 115.843C17.3972 115.843 24.3515 106.257 32.4249 113.606C32.4249 113.606 24.1916 121.914 17.3972 117.601V115.843Z" fill="#FF500A"/>
<path d="M19.7152 105.917C19.7152 105.917 27.9484 96.9074 35.1311 100.497C35.1311 100.497 26.5524 110.066 19.3555 108.308L19.7152 105.917Z" fill="#FF500A"/>
<path d="M22.5929 96.5078C22.5929 96.5078 32.0937 85.4722 37.6206 89.1583C37.6206 89.1583 30.6206 97.7175 21.9192 98.5734L22.5929 96.5078Z" fill="#FF500A"/>
<path d="M26.7466 85.5949C26.7466 85.5949 35.0626 76.5849 41.1376 78.8217C41.1376 78.8217 34.0235 88.1683 25.6304 88.408L26.7466 85.5949Z" fill="#FF500A"/>
<path d="M30.5064 75.3866C30.5064 75.3866 39.6988 66.7589 43.6955 68.2768C43.6955 68.2768 37.061 77.8631 30.1067 77.3039L30.5064 75.3866Z" fill="#FF500A"/>
<path d="M34.1833 65.9602C34.1833 65.9602 42.0968 55.652 46.4162 56.4509C46.4162 56.4509 41.6172 65.6406 34.1833 67.0072V65.9602Z" fill="#FF500A"/>
<path d="M38.1743 53.2498C38.1743 53.2498 45.1686 45.3496 48.9483 45.3667C48.9483 45.3667 43.4271 55.9231 37.886 55.8261L38.1743 53.2498Z" fill="#FF500A"/>
<path d="M40.538 44.7875L47.2953 28.3311C47.2953 28.3311 47.6322 43.2069 39.6787 47.8403L40.538 44.7875Z" fill="#FF500A"/>
<path d="M43.2815 26.639C43.2815 26.639 44.4006 12.8957 43.6812 11.7773C43.6812 11.7773 48.5115 23.2039 43.2358 32.7103L43.2815 26.639Z" fill="#FF500A"/>
<path d="M20.2519 169.586C20.2519 169.586 13.2462 165.247 8.70996 175.863C8.70996 175.863 14.9448 180 21.0769 172.294L20.2519 169.586Z" fill="#FF500A"/>
<path d="M17.1716 157.743C17.1716 157.743 8.57865 153.826 4.41064 164.91C4.41064 164.91 11.048 169.475 17.9538 160.545L17.1716 157.743Z" fill="#FF500A"/>
<path d="M15.8783 147.82C15.8783 147.82 9.72336 140.628 0.462402 147.82C0.462402 147.82 6.29761 154.131 15.8783 149.658V147.82Z" fill="#FF500A"/>
<path d="M15.1076 136.454C15.1076 136.454 8.87271 128.944 0 136.054C0 136.054 7.03422 142.685 15.1076 138.211V136.454Z" fill="#FF500A"/>
<path d="M15.8783 127.221C15.8783 127.221 11.5048 116.394 1.99829 121.05C1.99829 121.05 7.13692 130.65 15.4901 129.018L15.8783 127.221Z" fill="#FF500A"/>
<path d="M17.948 115.789C17.948 115.789 13.6001 104.773 3.95947 109.88C3.95947 109.88 9.86319 119.977 17.5198 117.489L17.948 115.789Z" fill="#FF500A"/>
<path d="M20.6431 105.971C20.6431 105.971 18.9302 93.8943 10.9368 92.813C10.9368 92.813 12.6325 105.549 19.5668 108.148L20.6431 105.971Z" fill="#FF500A"/>
<path d="M22.7954 96.5307C22.7954 96.5307 22.1274 81.98 15.5186 81.4722C15.5186 81.4722 15.7412 92.5164 22.0503 98.5906L22.7954 96.5307Z" fill="#FF500A"/>
<path d="M27.4317 85.1871C27.4317 85.1871 25.4619 73.0873 19.1528 71.6094C19.1528 71.6094 19.935 83.3269 26.8065 88.1572L27.4317 85.1871Z" fill="#FF500A"/>
<path d="M31.2543 75.4863C31.2543 75.4863 31.1887 62.8814 27.3347 61.0298C27.3347 61.0298 24.9452 72.4421 30.1381 77.0954L31.2543 75.4863Z" fill="#FF500A"/>
<path d="M34.4773 65.8172C34.4773 65.8172 33.9378 52.8386 29.9468 51.0098C29.9468 51.0098 28.5822 61.2808 33.8807 66.6674L34.4773 65.8172Z" fill="#FF500A"/>
<path d="M38.731 54.2853C38.731 54.2853 38.7082 43.7289 35.8591 41.2524C35.8591 41.2524 33.0271 52.8159 37.2436 56.4079L38.731 54.2853Z" fill="#FF500A"/>
<path d="M40.204 44.2684L37.432 26.6992C37.432 26.6992 33.6665 41.0958 40.3353 47.441L40.204 44.2684Z" fill="#FF500A"/>
<path d="M40.7437 26.8048C40.7437 26.8048 33.6296 14.9931 33.7752 13.6807C33.7752 13.6807 34.5317 26.0601 43.4815 32.2256L40.7437 26.8048Z" fill="#FF500A"/>
<path d="M41.5772 23.3152C41.5772 23.3152 34.8627 6.53921 31.8252 5.18115C31.8252 5.18115 41.4173 10.0542 42.1367 22.8359L41.5772 23.3152Z" fill="#FF500A"/>
<path d="M37.8517 55.926L37.3921 55.7862C43.0589 37.3183 44.472 25.5437 41.3745 22.5908L41.7028 22.2427C44.9887 25.3582 43.6555 37.0044 37.8517 55.926Z" fill="#444053"/>
<path d="M22.2473 99.1668L21.5679 98.9243C22.1702 97.2324 22.8183 95.5148 23.4977 93.823C29.4128 79.0897 34.4487 65.3836 37.6775 54.8615L38.2684 54.5762C35.0339 65.1183 30.0866 79.3494 24.1657 94.1026C23.4891 95.7631 22.844 97.472 22.2473 99.1668Z" fill="#444053"/>
<path d="M36.5441 200.816C36.4528 200.716 27.2689 190.379 20.8656 172.733C17.1136 162.402 15.0256 151.541 14.6793 140.556C14.2396 126.825 17.123 111.492 22.0618 97.5635L22.5985 98.1911C11.5104 129.452 15.9154 156.24 21.7591 172.371C28.0939 189.857 37.175 200.08 37.2635 200.183L36.5441 200.816Z" fill="#444053"/>
<path d="M180.061 178.87C180.061 178.87 173.589 186.765 178.727 198.699L127.056 221.096L122.097 222.134L119.813 212.148L121.34 199.546V192.659L180.061 178.87Z" fill="#D5D6DB"/>
<path d="M16.8892 173.769L88.4075 160.739L183.173 175.826L124.312 197.004L16.8892 173.769Z" fill="#FF500A"/>
<path d="M16.8892 173.769L88.4075 160.739L183.173 175.826L124.312 197.004L16.8892 173.769Z" fill="#FF500A"/>
<path d="M16.8889 173.766C16.8889 173.766 10.2001 186.431 17.9081 198.128L123.964 221.096C123.964 221.096 117.381 211.007 124.303 197.004L16.8889 173.766Z" fill="#FF500A"/>
<path opacity="0.1" d="M16.8889 173.766C16.8889 173.766 10.2001 186.431 17.9081 198.128L123.964 221.096C123.964 221.096 117.381 211.007 124.303 197.004L16.8889 173.766Z" fill="black"/>
<path opacity="0.1" d="M20.0493 178.157C20.0493 178.157 16.2267 187.424 20.0493 193.421V178.157Z" fill="black"/>
<path d="M123.964 221.095L183.172 195.846C183.172 195.846 186.484 196.559 184.343 198.984C182.202 201.409 125.106 223.52 125.106 223.52L17.9082 198.128L123.964 221.095Z" fill="#FF500A"/>
<path opacity="0.1" d="M123.964 221.095L183.172 195.846C183.172 195.846 186.484 196.559 184.343 198.984C182.202 201.409 125.106 223.52 125.106 223.52L17.9082 198.128L123.964 221.095Z" fill="black"/>
<path opacity="0.1" d="M119.111 199.555C119.111 199.555 113.401 206.402 119.111 216.673V199.555Z" fill="black"/>
<path opacity="0.1" d="M146.753 199.439L121.143 207.978L121.233 208.249L146.843 199.71L146.753 199.439Z" fill="black"/>
<path opacity="0.1" d="M151.882 198.589L121.135 210.274L121.236 210.541L151.984 198.856L151.882 198.589Z" fill="black"/>
<path opacity="0.1" d="M156.593 198.549L121.306 212.983L121.414 213.247L156.701 198.813L156.593 198.549Z" fill="black"/>
<path opacity="0.1" d="M161.716 197.312L121.718 215.37L121.836 215.63L161.834 197.572L161.716 197.312Z" fill="black"/>
<path opacity="0.1" d="M166.02 197.318L122.035 216.532L122.149 216.794L166.134 197.58L166.02 197.318Z" fill="black"/>
<path opacity="0.1" d="M175.434 195.721L122.698 218.484L122.811 218.746L175.547 195.983L175.434 195.721Z" fill="black"/>
<path opacity="0.3" d="M43.4585 175.161L93.7029 164.605L124.312 170.454L83.1402 183.721L43.4585 175.161Z" fill="white"/>
<path d="M183.172 175.826C183.172 175.826 185.77 176.873 184.246 178.491C182.721 180.109 124.303 197.004 124.303 197.004L183.172 175.826Z" fill="#FF500A"/>
<path d="M208.406 151.429C208.406 151.429 201.937 159.321 207.076 171.258L155.404 193.655L150.445 194.699L148.161 184.713L149.711 172.114V165.218L208.406 151.429Z" fill="#D5D6DB"/>
<path d="M45.2371 146.325L116.753 133.298L211.52 148.385L152.66 169.564L45.2371 146.325Z" fill="#3A3768"/>
<path d="M45.2258 146.325C45.2258 146.325 38.5342 158.99 46.2422 170.688L152.298 193.655C152.298 193.655 145.718 183.558 152.649 169.561L45.2258 146.325Z" fill="#3A3768"/>
<path opacity="0.1" d="M45.2258 146.325C45.2258 146.325 38.5342 158.99 46.2422 170.688L152.298 193.655C152.298 193.655 145.718 183.558 152.649 169.561L119.111 162.305L45.2258 146.325Z" fill="black"/>
<path opacity="0.1" d="M48.3944 150.716C48.3944 150.716 44.5747 159.98 48.3944 165.98V150.716Z" fill="black"/>
<path d="M152.309 193.655L211.52 168.405C211.52 168.405 214.829 169.119 212.688 171.544C210.547 173.969 153.451 196.08 153.451 196.08L46.2534 170.688L152.309 193.655Z" fill="#3A3768"/>
<path opacity="0.1" d="M152.309 193.655L211.52 168.405C211.52 168.405 214.829 169.119 212.688 171.544C210.547 173.969 153.451 196.08 153.451 196.08L46.2534 170.688L152.309 193.655Z" fill="black"/>
<path opacity="0.1" d="M147.456 172.114C147.456 172.114 141.746 178.962 147.456 189.233V172.114Z" fill="black"/>
<path opacity="0.1" d="M175.1 172.002L149.49 180.541L149.581 180.811L175.191 172.272L175.1 172.002Z" fill="black"/>
<path opacity="0.1" d="M180.234 171.15L149.486 182.835L149.587 183.102L180.335 171.417L180.234 171.15Z" fill="black"/>
<path opacity="0.1" d="M184.94 171.105L149.653 185.54L149.761 185.804L185.048 171.369L184.94 171.105Z" fill="black"/>
<path opacity="0.1" d="M190.066 169.87L150.068 187.927L150.186 188.187L190.184 170.13L190.066 169.87Z" fill="black"/>
<path opacity="0.1" d="M194.366 169.872L150.381 189.086L150.495 189.348L194.48 170.134L194.366 169.872Z" fill="black"/>
<path opacity="0.1" d="M203.782 168.274L151.046 191.038L151.16 191.3L203.895 168.536L203.782 168.274Z" fill="black"/>
<path opacity="0.45" d="M71.8066 147.72L122.051 137.164L152.66 143.013L111.488 156.28L71.8066 147.72Z" fill="white"/>
<path d="M211.52 148.385C211.52 148.385 214.115 149.432 212.594 151.047C211.072 152.662 152.66 169.561 152.66 169.561L211.52 148.385Z" fill="#3A3768"/>
<path d="M211.089 120.037C211.089 120.037 204.618 134.208 209.756 146.143L158.084 162.263L153.137 163.31L150.853 153.324L152.381 140.722V133.826L211.089 120.037Z" fill="#D5D6DB"/>
<path d="M47.9292 114.936L119.448 101.906L214.215 116.993L155.352 138.171L47.9292 114.936Z" fill="#FF500A"/>
<path d="M47.9291 114.933C47.9291 114.933 41.2289 127.598 48.9368 139.295L154.992 162.263C154.992 162.263 148.409 152.166 155.341 138.171L47.9291 114.933Z" fill="#FF500A"/>
<path opacity="0.1" d="M47.9291 114.933C47.9291 114.933 41.2289 127.598 48.9368 139.295L154.992 162.263C154.992 162.263 148.409 152.166 155.341 138.171L47.9291 114.933Z" fill="black"/>
<path opacity="0.1" d="M51.0896 119.324C51.0896 119.324 47.267 128.591 51.0896 134.588V119.324Z" fill="black"/>
<path d="M155.004 162.263L214.212 143.29C214.212 143.29 217.524 144.003 215.383 146.428C213.242 148.853 156.146 164.688 156.146 164.688L48.9482 139.295L155.004 162.263Z" fill="#FF500A"/>
<path opacity="0.1" d="M155.004 162.263L214.212 143.29C214.212 143.29 217.524 144.003 215.383 146.428C213.242 148.853 156.146 164.688 156.146 164.688L48.9482 139.295L155.004 162.263Z" fill="black"/>
<path opacity="0.1" d="M150.151 140.722C150.151 140.722 144.441 147.569 150.151 157.84V140.722Z" fill="black"/>
<path opacity="0.1" d="M177.796 140.608L152.186 149.147L152.276 149.418L177.887 140.879L177.796 140.608Z" fill="black"/>
<path opacity="0.1" d="M182.927 139.759L152.179 151.444L152.281 151.711L183.029 140.025L182.927 139.759Z" fill="black"/>
<path opacity="0.1" d="M187.631 139.715L152.344 154.15L152.452 154.414L187.739 139.979L187.631 139.715Z" fill="black"/>
<path opacity="0.1" d="M192.761 138.477L152.763 156.535L152.881 156.795L192.879 138.737L192.761 138.477Z" fill="black"/>
<path opacity="0.1" d="M197.063 138.482L153.077 157.696L153.192 157.958L197.177 138.744L197.063 138.482Z" fill="black"/>
<path opacity="0.1" d="M206.478 136.887L153.742 159.65L153.855 159.912L206.591 137.149L206.478 136.887Z" fill="black"/>
<path opacity="0.3" d="M74.4988 116.328L124.743 105.772L155.352 111.621L114.18 124.888L74.4988 116.328Z" fill="white"/>
<path d="M214.212 116.993C214.212 116.993 216.81 118.04 215.286 119.657C213.761 121.275 155.352 138.171 155.352 138.171L214.212 116.993Z" fill="#FF500A"/>
<path d="M88.6185 30.3851C88.6185 30.3851 77.7703 29.7318 79.0378 37.3381C79.0378 37.3381 78.7838 38.6819 80.0028 39.2924C80.0028 39.2924 80.0227 38.7218 81.1161 38.9187C81.5063 38.9856 81.9032 39.0048 82.298 38.9757C82.8302 38.9393 83.3362 38.731 83.7397 38.3823C83.7397 38.3823 86.7915 37.1212 87.9791 32.1341C87.9791 32.1341 88.8583 31.047 88.8355 30.7674L86.997 31.5492C86.997 31.5492 87.6222 32.8702 87.1312 33.9686C87.1312 33.9686 87.0712 31.5977 86.7172 31.6519C86.6459 31.6519 85.7666 32.1112 85.7666 32.1112C85.7666 32.1112 86.8429 34.4137 86.0292 36.0856C86.0292 36.0856 86.3376 33.2496 85.4297 32.2767L84.1394 33.0299C84.1394 33.0299 85.3983 35.4065 84.5447 37.3466C84.5447 37.3466 84.7646 34.3709 83.8681 33.2125L82.6977 34.1255C82.6977 34.1255 83.8824 36.4679 83.1602 38.077C83.1602 38.077 83.066 34.6134 82.4465 34.3509C82.4465 34.3509 81.4216 35.2525 81.2674 35.6234C81.2674 35.6234 82.0782 37.3352 81.5729 38.2225C81.5729 38.2225 81.2674 35.9144 81.0019 35.903C81.0019 35.903 79.9828 37.4322 79.8771 38.4707C79.9265 37.5025 80.2287 36.5642 80.7536 35.7489C80.1662 35.86 79.6243 36.1407 79.1948 36.5563C79.1948 36.5563 79.3519 35.475 81.0076 35.3809C81.0076 35.3809 81.8498 34.2197 82.0753 34.1512C82.0753 34.1512 80.4281 34.0114 79.4318 34.4536C79.4318 34.4536 80.3111 33.4351 82.3751 33.883L83.517 32.9415C83.517 32.9415 81.3531 32.6562 80.4338 32.9729C80.4338 32.9729 81.493 32.0713 83.8282 32.7275L85.0872 31.9771C85.0872 31.9771 83.2401 31.5806 82.141 31.7232C82.141 31.7232 83.3 31.0984 85.4554 31.7746L86.3518 31.3723C86.3518 31.3723 85.0015 31.107 84.6047 31.0642C84.2079 31.0214 84.1879 30.913 84.1879 30.913C85.0449 30.7723 85.9242 30.871 86.7287 31.1983C86.7287 31.1983 88.6557 30.505 88.6185 30.3851Z" fill="#FF500A"/>
<path opacity="0.1" d="M241.236 61.6493C241.236 61.6493 230.388 60.9959 231.655 68.6022C231.655 68.6022 231.401 69.946 232.62 70.5566C232.62 70.5566 232.64 69.986 233.734 70.1828C234.124 70.2482 234.521 70.2674 234.915 70.2399C235.443 70.201 235.944 69.9929 236.343 69.6464C236.343 69.6464 239.397 68.3854 240.582 63.3982C240.582 63.3982 241.461 62.3112 241.439 62.0316L239.606 62.8133C239.606 62.8133 240.231 64.1343 239.74 65.2327C239.74 65.2327 239.68 62.8618 239.329 62.9161C239.258 62.9161 238.375 63.3754 238.375 63.3754C238.375 63.3754 239.452 65.6778 238.641 67.3497C238.641 67.3497 238.949 64.5138 238.039 63.5409L236.748 64.2941C236.748 64.2941 238.007 66.6707 237.154 68.6108C237.154 68.6108 237.373 65.635 236.477 64.4767L235.309 65.3897C235.309 65.3897 236.491 67.732 235.769 69.3412C235.769 69.3412 235.675 65.8775 235.055 65.6151C235.055 65.6151 234.033 66.5166 233.876 66.8875C233.876 66.8875 234.687 68.5994 234.185 69.4867C234.185 69.4867 233.876 67.1785 233.614 67.1671C233.614 67.1671 232.594 68.6964 232.489 69.7349C232.538 68.7663 232.841 67.8277 233.368 67.0131C232.78 67.1244 232.237 67.405 231.807 67.8205C231.807 67.8205 231.966 66.7392 233.619 66.645C233.619 66.645 234.462 65.4838 234.687 65.4125C234.687 65.4125 233.043 65.2755 232.044 65.7178C232.044 65.7178 232.923 64.6992 234.987 65.1472L236.129 64.2056C236.129 64.2056 233.962 63.9203 233.046 64.237C233.046 64.237 234.102 63.3355 236.44 63.9917L237.696 63.2413C237.696 63.2413 235.849 62.8447 234.75 62.9874C234.75 62.9874 235.909 62.3626 238.064 63.0387L238.964 62.6365C238.964 62.6365 237.61 62.3711 237.214 62.3283C236.817 62.2855 236.797 62.1771 236.797 62.1771C237.654 62.0346 238.534 62.1334 239.338 62.4624C239.338 62.4624 241.27 61.7691 241.236 61.6493Z" fill="#FF500A"/>
<path opacity="0.1" d="M106.889 77.3753C106.889 77.3753 102.162 67.5807 96.1438 72.4081C96.1438 72.4081 94.8449 72.8418 94.9077 74.2027C94.9077 74.2027 95.4073 73.943 95.7642 74.993C95.8975 75.3641 96.0738 75.7184 96.2894 76.0486C96.5815 76.4962 97.0114 76.8367 97.5142 77.0186C97.5142 77.0186 100.103 79.0671 105.039 77.6691C105.039 77.6691 106.418 77.9059 106.644 77.7405L105.068 76.5222C105.068 76.5222 104.212 77.7119 103.018 77.8175C103.018 77.8175 105.062 76.6107 104.842 76.3311C104.797 76.274 103.986 75.7233 103.986 75.7233C103.986 75.7233 102.499 77.7861 100.643 77.8917C100.643 77.8917 103.269 76.779 103.675 75.5094L102.39 74.7505C102.39 74.7505 100.926 77.0101 98.8159 77.2098C98.8159 77.2098 101.522 75.9516 102.096 74.6049L100.732 74.0343C100.732 74.0343 99.2613 76.2084 97.5027 76.3653C97.5027 76.3653 100.483 74.5935 100.409 73.9231C100.409 73.9231 99.1214 73.4723 98.7217 73.5151C98.7217 73.5151 97.6312 75.0529 96.6035 75.0529C96.6035 75.0529 98.4677 73.6577 98.3535 73.4323C98.3535 73.4323 96.5207 73.2897 95.5558 73.7176C96.4253 73.2857 97.3928 73.089 98.362 73.147C97.9775 72.6888 97.4675 72.3527 96.8947 72.1798C96.8947 72.1798 97.9167 71.7918 98.8045 73.187C98.8045 73.187 100.232 73.3553 100.4 73.5179C100.4 73.5179 99.7181 72.0172 98.8473 71.3639C98.8473 71.3639 100.166 71.6292 100.769 73.6463L102.153 74.1941C102.153 74.1941 101.357 72.1627 100.623 71.5208C100.623 71.5208 101.925 72.003 102.493 74.3739L103.76 75.1042C103.76 75.1042 103.209 73.2982 102.547 72.4109C102.547 72.4109 103.658 73.1185 104.117 75.3268L104.908 75.9145C104.908 75.9145 104.48 74.6049 104.337 74.2398C104.194 73.8746 104.266 73.8004 104.266 73.8004C104.809 74.4778 105.153 75.2927 105.259 76.1542C105.259 76.1542 106.787 77.4609 106.889 77.3753Z" fill="#FF500A"/>
<path opacity="0.1" d="M216.451 47.8118C216.451 47.8118 211.726 38.0172 205.705 42.8446C205.705 42.8446 204.409 43.2783 204.469 44.6392C204.469 44.6392 204.972 44.3824 205.325 45.4295C205.459 45.8022 205.636 46.1575 205.854 46.488C206.145 46.9347 206.574 47.2743 207.075 47.4552C207.075 47.4552 209.668 49.5037 214.601 48.1085C214.601 48.1085 215.98 48.3425 216.208 48.177L214.641 46.9559C214.641 46.9559 213.784 48.1485 212.594 48.254C212.594 48.254 214.635 47.0443 214.415 46.7647C214.37 46.7077 213.559 46.157 213.559 46.157C213.559 46.157 212.074 48.2198 210.216 48.3254C210.216 48.3254 212.845 47.2127 213.25 45.9459L211.946 45.1927C211.946 45.1927 210.484 47.4495 208.372 47.652C208.372 47.652 211.078 46.391 211.655 45.0443L210.287 44.4737C210.287 44.4737 208.817 46.6506 207.061 46.8047C207.061 46.8047 210.039 45.0329 209.965 44.3653C209.965 44.3653 208.68 43.9117 208.28 43.9573C208.28 43.9573 207.19 45.4923 206.159 45.4923C206.159 45.4923 208.026 44.0971 207.912 43.8717C207.912 43.8717 206.079 43.7291 205.111 44.157C205.981 43.725 206.948 43.5282 207.918 43.5864C207.535 43.1279 207.025 42.7916 206.453 42.6192C206.453 42.6192 207.475 42.2312 208.363 43.6263C208.363 43.6263 209.79 43.7975 209.959 43.9602C209.959 43.9602 209.277 42.4566 208.403 41.8032C208.403 41.8032 209.722 42.0714 210.324 44.1L211.712 44.6477C211.712 44.6477 210.915 42.6135 210.182 41.9716C210.182 41.9716 211.483 42.4537 212.049 44.8246L213.319 45.555C213.319 45.555 212.765 43.7519 212.103 42.8617C212.103 42.8617 213.216 43.5693 213.673 45.7776L214.464 46.3653C214.464 46.3653 214.038 45.0557 213.893 44.6905C213.747 44.3253 213.821 44.254 213.821 44.254C214.363 44.932 214.706 45.7468 214.812 46.6078C214.812 46.6078 216.362 47.9031 216.451 47.8118Z" fill="#FF500A"/>
<path opacity="0.1" d="M231.55 96.2597C231.55 96.2597 226.825 86.4622 220.796 91.2896C220.796 91.2896 219.499 91.7233 219.559 93.0842C219.559 93.0842 220.062 92.8274 220.416 93.8745C220.548 94.2471 220.724 94.6024 220.941 94.933C221.232 95.3798 221.661 95.7193 222.163 95.9002C222.163 95.9002 224.755 97.9515 229.691 96.5535C229.691 96.5535 231.067 96.7903 231.295 96.622L229.72 95.4037C229.72 95.4037 228.863 96.5963 227.67 96.7019C227.67 96.7019 229.711 95.4922 229.491 95.2126C229.446 95.1555 228.635 94.6049 228.635 94.6049C228.635 94.6049 227.15 96.6677 225.292 96.7761C225.292 96.7761 227.921 95.6605 228.326 94.3938L227.039 93.6348C227.039 93.6348 225.577 95.8945 223.465 96.0942C223.465 96.0942 226.171 94.8331 226.748 93.4865L225.38 92.9159C225.38 92.9159 223.91 95.0899 222.154 95.2468C222.154 95.2468 225.135 93.4751 225.061 92.8046C225.061 92.8046 223.773 92.351 223.373 92.3966C223.373 92.3966 222.283 93.9316 221.252 93.9316C221.252 93.9316 223.119 92.5364 223.005 92.311C223.005 92.311 221.172 92.1684 220.205 92.5963C221.075 92.1646 222.044 91.9679 223.014 92.0257C222.63 91.5665 222.12 91.2301 221.546 91.0585C221.546 91.0585 222.568 90.6677 223.456 92.0657C223.456 92.0657 224.884 92.234 225.052 92.3966C225.052 92.3966 224.37 90.8959 223.499 90.2397C223.499 90.2397 224.818 90.5079 225.42 92.5364L226.805 93.0842C226.805 93.0842 226.008 91.05 225.275 90.4109C225.275 90.4109 226.576 90.8902 227.142 93.2639L228.412 93.9915C228.412 93.9915 227.858 92.1883 227.196 91.2982C227.196 91.2982 228.309 92.0057 228.769 94.2169L229.56 94.7875C229.56 94.7875 229.132 93.4779 228.989 93.1127C228.846 92.7475 228.917 92.6762 228.917 92.6762C229.46 93.3535 229.803 94.1686 229.908 95.03C229.908 95.03 231.461 96.3453 231.55 96.2597Z" fill="#FF500A"/>
<path opacity="0.1" d="M57.6525 223.726C61.2773 223.726 64.2157 223.398 64.2157 222.993C64.2157 222.588 61.2773 222.26 57.6525 222.26C54.0278 222.26 51.0894 222.588 51.0894 222.993C51.0894 223.398 54.0278 223.726 57.6525 223.726Z" fill="#FF500A"/>
<path opacity="0.1" d="M14.6281 211.264C18.2529 211.264 21.1913 210.936 21.1913 210.531C21.1913 210.126 18.2529 209.797 14.6281 209.797C11.0034 209.797 8.06494 210.126 8.06494 210.531C8.06494 210.936 11.0034 211.264 14.6281 211.264Z" fill="#FF500A"/>
<path opacity="0.1" d="M90.4484 232.003C94.0732 232.003 97.0116 231.675 97.0116 231.27C97.0116 230.865 94.0732 230.537 90.4484 230.537C86.8237 230.537 83.8853 230.865 83.8853 231.27C83.8853 231.675 86.8237 232.003 90.4484 232.003Z" fill="#FF500A"/>
<path opacity="0.1" d="M258.51 213.974C262.135 213.974 265.074 213.646 265.074 213.241C265.074 212.836 262.135 212.508 258.51 212.508C254.886 212.508 251.947 212.836 251.947 213.241C251.947 213.646 254.886 213.974 258.51 213.974Z" fill="#FF500A"/>
<path opacity="0.1" d="M203.895 210.417C207.52 210.417 210.458 210.088 210.458 209.683C210.458 209.278 207.52 208.95 203.895 208.95C200.27 208.95 197.332 209.278 197.332 209.683C197.332 210.088 200.27 210.417 203.895 210.417Z" fill="#FF500A"/>
<path opacity="0.1" d="M168.564 227.769C172.851 227.769 176.327 227.172 176.327 226.436C176.327 225.701 172.851 225.104 168.564 225.104C164.277 225.104 160.802 225.701 160.802 226.436C160.802 227.172 164.277 227.769 168.564 227.769Z" fill="#FF500A"/>
<path d="M172.027 213.044C172.027 213.044 161.219 218.625 166.803 225.198C166.803 225.198 167.328 226.625 168.847 226.525C168.847 226.525 168.544 225.972 169.703 225.529C170.116 225.37 170.508 225.162 170.871 224.91C171.362 224.571 171.728 224.081 171.916 223.515C171.916 223.515 174.125 220.559 172.412 215.09C172.412 215.09 172.635 213.544 172.441 213.293L171.128 215.093C171.128 215.093 172.484 216.003 172.641 217.341C172.641 217.341 171.213 215.096 170.928 215.344C170.865 215.395 170.277 216.328 170.277 216.328C170.277 216.328 172.629 217.923 172.804 219.994C172.804 219.994 171.479 217.093 170.049 216.679L169.229 218.14C169.229 218.14 171.799 219.703 172.084 222.054C172.084 222.054 170.591 219.073 169.067 218.471L168.464 220.014C168.464 220.014 170.942 221.589 171.171 223.547C171.171 223.547 169.098 220.274 168.353 220.377C168.353 220.377 167.885 221.826 167.948 222.274C167.948 222.274 169.698 223.444 169.729 224.594C169.729 224.594 168.113 222.554 167.865 222.688C167.865 222.688 167.762 224.739 168.259 225.806C168.259 225.806 167.402 224.283 167.542 222.688C167.041 223.13 166.681 223.709 166.506 224.354C166.506 224.354 166.041 223.227 167.574 222.188C167.574 222.188 167.719 220.594 167.896 220.397C167.896 220.397 166.238 221.207 165.532 222.2C165.532 222.2 165.792 220.719 168.042 219.983L168.613 218.42C168.613 218.42 166.363 219.373 165.669 220.211C165.669 220.211 166.169 218.742 168.79 218.037L169.566 216.611C169.566 216.611 167.568 217.284 166.592 218.037C166.592 218.037 167.348 216.773 169.806 216.191L170.437 215.293C170.437 215.293 168.987 215.809 168.581 215.994C168.176 216.18 168.096 216.089 168.096 216.089C168.837 215.462 169.737 215.053 170.697 214.907C170.697 214.907 172.127 213.141 172.027 213.044Z" fill="#FF500A"/>
<path d="M204.107 107.643C202.24 102.573 191.962 102.097 187.503 103.389C184.334 104.311 177.654 105.349 174.086 105.871L173.854 105.652C174.317 105.515 174.328 105.178 174.271 104.679C174.238 104.021 174.247 103.361 174.3 102.705C176.486 103.384 178.433 101.777 178.433 101.777C181.003 100.636 180.312 95.7516 180.803 94.4164C181.171 93.4178 181.568 87.5348 181.745 84.6018H181.782L181.802 83.6175C181.828 83.1924 181.839 82.9442 181.839 82.9442C181.839 82.9442 182.09 75.7716 182.581 74.3194C183.038 72.9841 183.409 66.2566 183.466 65.1895C183.466 65.0982 183.466 65.0497 183.466 65.0497L183.429 64.4278C183.455 63.9741 183.466 63.4691 183.464 62.9385C183.464 60.4991 183.209 57.4263 183.178 56.9299C183.178 56.8586 183.178 56.773 183.178 56.6703C183.198 55.6289 183.067 50.4135 178.627 48.442C176.992 47.7116 175.025 46.8415 173.121 45.9941C172.63 41.7573 171.508 37.5433 171.605 33.2751C171.605 32.6332 171.662 31.9912 171.725 31.3522C171.725 31.5376 171.705 31.7259 171.702 31.9228C171.702 32.3365 171.702 32.753 171.702 33.1667C171.87 27.8286 173.889 22.462 173.7 17.238C173.683 17.7487 173.646 18.2623 173.597 18.7758C173.696 17.0089 173.511 15.2375 173.049 13.529C172.878 12.927 172.647 12.3051 172.153 11.9028C171.686 11.5788 171.151 11.3669 170.588 11.2837C169.238 10.9381 167.865 10.6827 166.48 10.5191C166.27 9.87534 165.958 9.26946 165.555 8.72448C162.661 4.75301 158.373 1.0212 153.303 0.165281C150.759 -0.262679 147.833 0.093954 146.103 1.91136C145.922 2.07101 145.752 2.24258 145.595 2.42491C144.664 3.53475 144.264 4.99267 143.311 6.09966C143.248 6.17384 143.177 6.24231 143.108 6.31364C141.241 7.98269 138.332 8.33076 136.257 9.82862C135.891 10.0975 135.548 10.3962 135.232 10.7216C134.395 11.5499 133.646 12.4609 132.994 13.4406C132.06 14.753 131.101 16.1196 130.804 17.686C130.207 20.8243 132.346 23.8001 132.742 26.9584C133.627 34.0255 125.802 40.2965 127.284 47.2694C127.679 48.9825 128.552 50.5484 129.802 51.7858C126.75 54.5476 124.152 57.2266 124.152 57.2266V57.3864H123.67L123.718 57.957H123.67L123.935 61.0526L123.67 65.5604C123.67 65.5604 123.67 65.6089 123.67 65.7002V65.7231V65.8457C123.67 65.8457 123.67 65.8942 123.67 65.9855H123.687C123.775 67.6375 124.127 73.5776 124.543 74.83C125.034 76.2823 125.283 83.4549 125.283 83.4549C125.283 83.4549 125.825 93.5918 126.322 94.9328C126.819 96.2737 126.114 101.144 128.691 102.294C129.446 102.872 130.338 103.242 131.281 103.366C131.149 104.433 131.232 105.207 131.658 105.449C131.84 105.556 132.046 105.615 132.257 105.62C132.082 105.88 131.927 106.151 131.792 106.433C130.768 106.327 129.763 106.09 128.8 105.729C126.031 104.588 116.841 102.02 114.172 103.826C111.503 105.632 105.079 107.269 108.046 114.539C111.012 121.809 112.393 121.991 112.393 121.991C113.306 122.654 114.107 123.458 114.766 124.374C115.656 125.712 123.955 128.773 126.031 128.773C126.913 128.759 127.795 128.803 128.671 128.904C128.671 128.904 126.419 130.879 126.719 132.025C127.018 133.172 126.034 142.354 126.034 142.354C126.034 142.354 128.317 144.653 129.294 141.637L129.328 141.683C129.511 141.931 130.498 143.053 132.357 141.637C133.118 141.061 133.925 140.549 134.772 140.108L143.77 138.836C144.709 138.777 145.649 138.77 146.588 138.816C148.016 138.933 149.417 138.088 150.299 137.435C152.164 138.142 154.259 138.916 155.255 139.198C157.276 139.769 166.566 142.259 168.738 141.481C169.19 141.301 169.592 141.015 169.909 140.647L171.982 140.713L171.011 140.907C171.011 140.907 172.901 140.938 175.47 140.973L175.362 141.035L178.585 141.007C183.301 141.05 188.599 141.064 189.296 140.907C190.386 140.665 196.053 140.836 197.723 140.907H198.189C198.189 140.907 204.415 139.666 201.846 133.352C199.87 128.502 193.798 127.093 191.103 126.705C191.862 126.553 192.516 126.436 192.95 126.368C194.831 126.083 198.485 124.371 198.782 123.786C199.079 123.201 202.142 121.503 202.933 120.536C203.724 119.569 205.982 112.713 204.107 107.643ZM152.535 121.831L152.229 121.931L152.024 122L151.63 122.388C151.316 122.177 150.979 121.954 150.628 121.726C151.247 121.763 151.884 121.8 152.535 121.831Z" fill="url(#paint0_linear)"/>
<path d="M170.737 91.7489C170.737 91.7489 175.105 103.161 177.588 102.02C180.072 100.879 179.398 96.0285 179.872 94.699C180.346 93.3694 180.871 83.2867 180.871 83.2867C180.871 83.2867 181.111 76.154 181.585 74.7104C182.025 73.3837 182.382 66.6933 182.441 65.6405C182.441 65.5492 182.441 65.5007 182.441 65.5007L181.97 57.2268L179.304 56.562L173.121 58.8445L172.264 63.7318L171.93 65.6405L171.787 66.4536L170.737 91.7489Z" fill="#BE6F72"/>
<path opacity="0.1" d="M172.176 89.8374C172.176 89.8374 176.344 93.2468 177.6 93.5464C178.856 93.846 179.627 96.505 179.627 96.505" fill="black"/>
<path d="M136.579 92.2484C136.579 92.2484 132.211 103.661 129.728 102.519C127.244 101.378 127.918 96.528 127.444 95.1985C126.97 93.8689 126.445 83.7862 126.445 83.7862C126.445 83.7862 126.205 76.6535 125.731 75.2099C125.291 73.8832 124.934 67.1928 124.875 66.14C124.875 66.0487 124.875 66.0002 124.875 66.0002L125.348 57.7263L128.015 57.0615L134.198 59.344L135.055 64.2313L135.389 66.14L135.531 66.9531L136.579 92.2484Z" fill="#BE6F72"/>
<path d="M165.022 31.1753H155.272V46.3622H165.022V31.1753Z" fill="#3E373A"/>
<path opacity="0.1" d="M165.022 31.1753H155.272V46.3622H165.022V31.1753Z" fill="black"/>
<path d="M134.866 103.615C134.866 103.615 131.535 107.275 132.771 107.94C134.007 108.605 142.003 121.064 142.003 121.064C142.003 121.064 168.267 124.297 173.22 119.447C178.174 114.596 178.074 105.932 178.074 105.932C178.074 105.932 174.094 106.788 173.66 106.322C173.226 105.857 170.842 103.615 170.842 103.615C170.842 103.615 137.15 101.572 134.866 103.615Z" fill="#4B4B5B"/>
<path opacity="0.02" d="M134.866 103.615C134.866 103.615 131.535 107.275 132.771 107.94C134.007 108.605 142.003 121.064 142.003 121.064C142.003 121.064 168.267 124.297 173.22 119.447C178.174 114.596 178.074 105.932 178.074 105.932C178.074 105.932 174.094 106.788 173.66 106.322C173.226 105.857 170.842 103.615 170.842 103.615C170.842 103.615 137.15 101.572 134.866 103.615Z" fill="black"/>
<path d="M182.147 57.3465L173.583 64.1939L170.994 64.3822L170.043 64.4507L154.076 65.6204L137.518 64.4107L135.055 64.231L131.914 64.0027L125.348 57.726C125.348 57.726 129.996 52.7502 134.067 49.3922C135.671 48.0655 137.187 46.9928 138.292 46.5705L138.48 46.5049C139.175 46.2341 139.796 45.8018 140.29 45.2438C143.505 41.9314 146.477 33.7574 146.477 33.7574C146.477 33.7574 160.657 26.4364 158.944 36.0398C157.231 45.6433 165.318 43.2695 165.318 43.2695L167.985 44.4849L169.038 44.9671L171.725 46.1968L177.785 48.9756C182.541 51.1639 182.147 57.3465 182.147 57.3465Z" fill="#BE6F72"/>
<path opacity="0.1" d="M153.411 41.5777C160.454 41.5777 166.163 35.8717 166.163 28.833C166.163 21.7944 160.454 16.0884 153.411 16.0884C146.368 16.0884 140.659 21.7944 140.659 28.833C140.659 35.8717 146.368 41.5777 153.411 41.5777Z" fill="black"/>
<path opacity="0.1" d="M182.167 66.425H124.875C124.875 66.3337 124.875 66.2852 124.875 66.2852L125.348 58.0113C125.348 58.0113 129.996 53.0356 134.067 49.6775L170.037 48.251L171.71 46.4878L177.771 49.2667C182.53 51.4521 182.147 57.6347 182.147 57.6347C182.147 57.6347 182.798 64.7988 182.167 66.425Z" fill="black"/>
<path d="M182.167 66.1399H124.875C124.875 66.0486 124.875 66.0001 124.875 66.0001L125.348 57.7262C125.348 57.7262 129.996 52.7504 134.067 49.3924L170.037 47.9658L171.71 46.2026L177.771 48.9815C182.53 51.167 182.147 57.3496 182.147 57.3496C182.147 57.3496 182.798 64.5136 182.167 66.1399Z" fill="#E7C7CA"/>
<path opacity="0.1" d="M144.227 42.9386C144.227 42.9386 153.265 54.4479 165.304 42.7018C177.343 30.9557 166.637 68.9015 166.637 68.9015L140.659 71.9828L144.227 42.9386Z" fill="black"/>
<path d="M144.227 43.5094C144.227 43.5094 153.265 55.0187 165.304 43.2726C177.343 31.5265 166.637 69.4723 166.637 69.4723L140.659 72.5536L144.227 43.5094Z" fill="#E7C7CA"/>
<path opacity="0.1" d="M169.024 45.5293L169.98 60.1057L171.005 64.9559L171.787 68.6649C171.787 68.6649 173.786 97.1955 173.215 98.6221C172.644 100.049 173.5 101.19 173.62 101.949C173.74 102.708 173.5 104.614 173.594 105.469C173.689 106.325 173.594 106.705 171.408 106.4C169.221 106.094 166.172 105.564 166.172 105.564C166.172 105.564 158.464 106.134 155.801 105.184C153.137 104.234 148.093 104.231 148.093 104.231C148.093 104.231 140.479 104.422 138.007 104.137C135.534 103.852 134.198 107.181 132.582 106.228C130.967 105.275 134.484 96.0543 135.626 93.3896C136.768 90.7248 134.104 83.9744 134.104 83.9744L137.53 64.9816L138.292 60.6763V47.1413L138.48 47.0757C139.175 46.8049 139.796 46.3726 140.29 45.8147L141.147 59.4352L167.982 60.3881V45.0586" fill="black"/>
<path d="M169.024 44.9585L169.98 59.5349L171.005 64.3851L171.787 68.0941C171.787 68.0941 173.786 96.6247 173.215 98.0513C172.644 99.4778 173.5 100.619 173.62 101.378C173.74 102.137 173.5 104.043 173.594 104.899C173.689 105.755 173.594 106.134 171.408 105.829C169.221 105.523 166.172 104.993 166.172 104.993C166.172 104.993 158.464 105.563 155.801 104.613C153.137 103.663 148.093 103.66 148.093 103.66C148.093 103.66 140.479 103.852 138.007 103.566C135.534 103.281 134.198 106.61 132.582 105.658C130.967 104.705 134.484 95.4835 135.626 92.8188C136.768 90.154 134.104 83.4036 134.104 83.4036L137.53 64.4108L138.292 60.1055V46.5705L138.48 46.5049C139.175 46.2341 139.796 45.8018 140.29 45.2439L141.147 58.8644L167.982 59.8173V44.4878" fill="#E7C7CA"/>
<path opacity="0.1" d="M172.11 14.539C171.947 13.9427 171.722 13.3236 171.254 12.9242C170.806 12.6034 170.29 12.3923 169.746 12.3079C168.444 11.9657 167.12 11.7122 165.784 11.549C165.593 10.9155 165.304 10.3157 164.927 9.77155C162.13 5.82291 157.99 2.09966 153.12 1.258C150.571 0.815776 147.616 1.21235 145.983 3.22091C145.086 4.32505 144.701 5.78867 143.796 6.87284C142.052 8.9784 138.903 9.23803 136.705 10.8671C135.531 11.7231 134.681 12.9641 133.85 14.1681C132.951 15.472 132.026 16.83 131.74 18.3878C131.169 21.5005 133.228 24.4677 133.607 27.6089C134.464 34.636 126.927 40.87 128.352 47.8029C129.182 51.8457 132.919 54.6931 136.785 56.1368C138.146 56.6475 139.702 57.1553 140.339 58.462C140.624 59.0326 140.673 59.6917 140.941 60.268C141.843 62.191 144.81 62.2651 146.402 60.8643C147.995 59.4634 148.498 57.1981 148.686 55.084C149.451 45.8514 145.752 36.7302 146.183 27.4748C146.311 24.676 147.099 21.5005 149.608 20.2338C152.986 18.5219 157.048 21.375 160.765 20.83C162.524 25.1072 162.897 29.8277 161.833 34.3279C161.242 36.7901 160.22 39.1781 160.145 41.7174C160.034 45.5833 162.121 49.1154 163.925 52.5333C164.312 53.1725 164.571 53.8809 164.687 54.6189C164.716 55.3678 164.576 56.1135 164.279 56.8015C163.26 59.5433 161.502 62.0883 161.302 65.0069C161.243 65.3476 161.32 65.6977 161.516 65.9827C161.717 66.1729 161.976 66.2895 162.252 66.3137C165.336 66.8415 168.002 64.1111 169.506 61.3693C171.184 58.341 172.161 54.9757 172.367 51.5205C172.678 45.7116 170.594 39.9969 170.723 34.1824C170.871 27.5718 173.86 20.9156 172.11 14.539Z" fill="black"/>
<path d="M172.396 14.2539C172.233 13.6576 172.007 13.0385 171.539 12.639C171.092 12.3182 170.576 12.1071 170.032 12.0228C168.73 11.6806 167.406 11.427 166.069 11.2639C165.878 10.6303 165.589 10.0306 165.213 9.4864C162.415 5.53775 158.276 1.8145 153.405 0.972845C150.856 0.53062 147.901 0.927196 146.268 2.93576C145.372 4.03989 144.987 5.50352 144.082 6.58768C142.337 8.69325 139.189 8.95287 136.99 10.582C135.817 11.4379 134.966 12.679 134.136 13.883C133.236 15.1868 132.311 16.5449 132.026 18.1027C131.455 21.2154 133.513 24.1825 133.893 27.3238C134.749 34.3509 127.213 40.5848 128.637 47.5178C129.468 51.5606 133.205 54.4079 137.07 55.8516C138.432 56.3623 139.988 56.8701 140.625 58.1768C140.91 58.7475 140.959 59.4065 141.227 59.9828C142.129 61.9058 145.095 61.98 146.688 60.5791C148.281 59.1783 148.784 56.9129 148.972 54.7988C149.737 45.5663 146.037 36.445 146.468 27.1897C146.597 24.3908 147.385 21.2154 149.894 19.9486C153.271 18.2368 157.334 21.0898 161.051 20.5449C162.81 24.822 163.183 29.5425 162.118 34.0427C161.527 36.5049 160.505 38.893 160.431 41.4322C160.32 45.2981 162.407 48.8302 164.211 52.2482C164.598 52.8873 164.857 53.5957 164.973 54.3338C165.002 55.0826 164.862 55.8283 164.565 56.5164C163.546 59.2582 161.787 61.8031 161.587 64.7218C161.529 65.0625 161.606 65.4126 161.801 65.6975C162.003 65.8877 162.262 66.0043 162.538 66.0285C165.621 66.5563 168.288 63.8259 169.792 61.0841C171.469 58.0558 172.447 54.6905 172.653 51.2353C172.964 45.4265 170.88 39.7118 171.008 33.8972C171.157 27.2867 174.146 20.6305 172.396 14.2539Z" fill="#3E373A"/>
<path d="M166.089 140.579L177.414 140.942L175.79 132.548L167.114 133.372L166.089 140.579Z" fill="#C3C7D9"/>
<path d="M201.18 120.685C200.418 121.635 197.469 123.347 197.184 123.917C196.898 124.488 193.378 126.2 191.568 126.485C189.758 126.771 184.052 128.009 183.004 128.674C182.253 129.153 176.227 130.671 172.267 131.512C171.194 131.766 170.109 131.961 169.015 132.097C167.302 132.191 148.558 125.82 148.558 125.82L152.172 122.111L152.372 122.043C153.394 121.698 158.116 120.103 160.736 119.344C163.688 118.488 167.114 114.97 167.114 114.97C167.114 114.97 172.156 113.258 172.824 113.067C173.492 112.876 171.111 106.411 171.111 106.411C171.111 106.411 182.053 104.893 186.335 103.607C190.618 102.32 200.515 102.796 202.322 107.838C204.129 112.879 201.954 119.735 201.18 120.685Z" fill="#4B4B5B"/>
<path d="M151.316 136.756C151.316 136.756 149.129 139.039 146.939 138.85C144.75 138.662 137.093 139.421 137.093 139.421C135.706 139.974 134.406 140.727 133.236 141.655C131.446 143.064 130.496 141.94 130.319 141.701L130.287 141.655C129.334 144.653 127.147 142.368 127.147 142.368C127.147 142.368 128.098 133.238 127.806 132.097C127.515 130.956 129.688 128.996 129.688 128.996L132.257 128.342L138.766 126.676L148.093 129.909L151.316 136.756Z" fill="#E7C7CA"/>
<path opacity="0.1" d="M132.246 128.342L130.319 141.7L130.287 141.655C129.334 144.653 127.147 142.368 127.147 142.368C127.147 142.368 128.098 133.238 127.806 132.097C127.515 130.956 129.688 128.996 129.688 128.996L132.246 128.342Z" fill="black"/>
<path opacity="0.1" d="M145.715 90.3452C145.715 90.3452 150.756 92.057 155.135 90.3452H145.715Z" fill="black"/>
<path opacity="0.1" d="M162.926 93.5806C162.926 93.5806 165.019 94.6248 166.637 93.5806H162.926Z" fill="black"/>
<path opacity="0.1" d="M162.926 96.0569C162.926 96.0569 166.446 96.5277 167.114 95.5776L162.926 96.0569Z" fill="black"/>
<path opacity="0.1" d="M161.784 101.378C161.784 101.378 168.396 100.522 170.037 99.3809L161.784 101.378Z" fill="black"/>
<path opacity="0.1" d="M141.609 99.3809C141.609 99.3809 145.321 101.472 148.081 101.378L141.609 99.3809Z" fill="black"/>
<path opacity="0.1" d="M172.264 131.512C171.192 131.766 170.106 131.961 169.012 132.097C167.3 132.191 148.555 125.82 148.555 125.82L152.169 122.111L152.369 122.043C152.94 122.445 153.408 122.79 153.742 123.053C155.315 124.291 156.834 122.674 157.405 122.674C157.976 122.674 162.923 126.762 162.923 126.762C162.923 126.762 167.491 127.809 168.253 128.759C169.015 129.709 171.679 129.521 172.153 130.186C172.295 130.391 172.313 130.896 172.264 131.512Z" fill="black"/>
<path d="M137.093 106.799C137.093 106.799 132.474 107.064 129.811 105.943C127.147 104.822 118.297 102.234 115.728 104.051C113.159 105.869 106.972 107.475 109.827 114.705C112.682 121.934 114.015 122.123 114.015 122.123C114.898 122.785 115.669 123.584 116.299 124.491C117.155 125.823 125.149 128.864 127.147 128.864C129.145 128.864 132.665 128.864 137.613 132.288C142.56 135.712 147.034 136.094 147.034 136.094C147.034 136.094 153.314 138.662 155.27 139.232C157.225 139.803 166.161 142.274 168.256 141.515C170.352 140.756 171.682 135.997 171.682 135.997C171.682 135.997 172.632 131.717 172.156 131.053C171.679 130.388 169.015 130.576 168.256 129.626C167.497 128.676 162.926 127.629 162.926 127.629C162.926 127.629 157.99 123.538 157.419 123.538C156.848 123.538 155.33 125.153 153.757 123.917C150.623 121.598 147.331 119.5 143.905 117.64C140.29 115.737 137.093 106.799 137.093 106.799Z" fill="#4B4B5B"/>
<path opacity="0.1" d="M127.806 109.558C128.629 109.39 129.479 109.414 130.291 109.628C131.102 109.842 131.853 110.241 132.485 110.793C134.769 112.696 142.454 116.516 142.454 116.516" fill="black"/>
<path opacity="0.1" d="M184.908 109.438C184.908 109.438 174.725 110.979 172.824 113.07L184.908 109.438Z" fill="black"/>
<path d="M196.613 140.942H196.165C194.554 140.885 189.099 140.713 188.048 140.942C186.812 141.227 170.443 140.942 170.443 140.942L173.643 140.277C173.643 140.277 172.456 136.117 173.209 135.772C173.209 135.772 168.927 132.953 172.156 131.05C175.385 129.147 178.865 129.949 178.865 129.949L186.969 127.204L188.525 126.676C188.525 126.676 197.66 127.153 200.133 133.429C202.605 139.706 196.613 140.942 196.613 140.942Z" fill="#E7C7CA"/>
<path opacity="0.1" d="M196.613 140.942H196.165C198.822 138.75 204.835 132.08 186.969 127.218L188.525 126.69C188.525 126.69 197.66 127.167 200.133 133.444C202.605 139.72 196.613 140.942 196.613 140.942Z" fill="black"/>
<path d="M179.818 133.546C180.094 133.546 180.318 133.323 180.318 133.047C180.318 132.771 180.094 132.548 179.818 132.548C179.542 132.548 179.318 132.771 179.318 133.047C179.318 133.323 179.542 133.546 179.818 133.546Z" fill="#4B4B5B"/>
<path d="M176.915 134.371C177.191 134.371 177.414 134.148 177.414 133.872C177.414 133.596 177.191 133.373 176.915 133.373C176.639 133.373 176.415 133.596 176.415 133.872C176.415 134.148 176.639 134.371 176.915 134.371Z" fill="#4B4B5B"/>
<g opacity="0.1">
<path opacity="0.1" d="M162.769 28.3623C162.88 25.2242 162.321 22.0984 161.131 19.1926C157.419 19.7461 153.354 16.8844 149.974 18.5963C147.473 19.863 146.688 23.0385 146.548 25.8374C146.514 26.5763 146.508 27.3152 146.523 28.0542C146.523 27.7917 146.523 27.5264 146.548 27.2639C146.68 24.465 147.465 21.2896 149.974 20.0228C153.354 18.311 157.414 21.164 161.131 20.6191C162.139 23.0805 162.694 25.7037 162.769 28.3623Z" fill="black"/>
<path opacity="0.1" d="M134.01 27.8402C134.059 27.2185 134.047 26.5935 133.973 25.9743C133.67 23.4636 132.297 21.0641 132.049 18.6162C131.729 21.5691 133.61 24.4051 133.973 27.4008C134.01 27.5549 134.01 27.6918 134.01 27.8402Z" fill="black"/>
<path opacity="0.1" d="M149.052 53.4436C148.875 55.5606 148.375 57.8231 146.768 59.2268C145.161 60.6305 142.2 60.5535 141.307 58.6305C141.021 58.0599 140.979 57.3951 140.702 56.8245C140.068 55.5178 138.509 55.0099 137.147 54.4992C133.279 53.0527 129.548 50.2196 128.717 46.1654C128.643 45.7981 128.593 45.4265 128.566 45.0527C128.496 45.902 128.547 46.757 128.717 47.592C129.548 51.6348 133.285 54.4793 137.147 55.9258C138.509 56.4365 140.068 56.9443 140.702 58.251C140.987 58.8216 141.036 59.4807 141.307 60.057C142.206 61.98 145.172 62.0542 146.768 60.6533C148.364 59.2525 148.861 56.9871 149.052 54.8701C149.139 53.7559 149.168 52.6379 149.14 51.5206C149.14 52.1683 149.103 52.8074 149.052 53.4436Z" fill="black"/>
<path opacity="0.1" d="M171.102 32.5449C171.102 32.9586 171.102 33.3694 171.102 33.7802C171.262 28.4735 173.209 23.1383 173.018 17.9429C172.869 22.7474 171.211 27.6604 171.102 32.5449Z" fill="black"/>
<path opacity="0.1" d="M164.976 54.0111C165.046 53.6726 165.068 53.3258 165.042 52.9812C164.927 52.2428 164.668 51.5342 164.279 50.8956C162.629 47.7572 160.748 44.5446 160.525 41.061C160.525 41.2094 160.505 41.3463 160.503 41.5061C160.388 45.3692 162.475 48.9041 164.279 52.3221C164.586 52.8515 164.82 53.4195 164.976 54.0111Z" fill="black"/>
<path opacity="0.1" d="M172.744 49.8831C172.531 53.3397 171.547 56.7048 169.863 59.7319C168.356 62.4737 165.693 65.2041 162.607 64.6763C162.33 64.6525 162.07 64.5346 161.87 64.3425C161.812 64.2771 161.767 64.2017 161.736 64.1199C161.702 64.3425 161.673 64.5679 161.656 64.7961C161.597 65.1359 161.674 65.4853 161.87 65.769C162.07 65.9612 162.33 66.079 162.607 66.1028C165.693 66.6306 168.356 63.9002 169.863 61.1584C171.547 58.1313 172.531 54.7662 172.744 51.3096C172.778 50.642 172.781 49.9773 172.761 49.3125C172.755 49.5037 172.755 49.692 172.744 49.8831Z" fill="black"/>
</g>
<path opacity="0.1" d="M173.209 135.772C173.209 135.772 180.434 138.802 185.199 132.097" stroke="black" stroke-miterlimit="10"/>
<path opacity="0.1" d="M174.631 141.067C174.631 141.067 180.532 137.233 188.048 140.942" stroke="black" stroke-miterlimit="10"/>
<path opacity="0.1" d="M135.132 140.197C135.132 140.197 137.61 134.611 144.227 138.87" stroke="black" stroke-miterlimit="10"/>
<path opacity="0.1" d="M127.098 57.5835L132.151 53.0185C132.151 53.0185 151.744 51.7347 152.555 58.3909C152.555 58.3909 159.5 50.4993 174.108 52.2568L180.289 57.1755L163.206 64.6676L146.605 70.4223L134.378 64.9529L127.098 57.5835Z" fill="black"/>
<path d="M127.098 57.8686L132.151 53.3037C132.151 53.3037 151.744 52.0198 152.555 58.676C152.555 58.676 159.5 50.7844 174.108 52.5419L180.289 57.4606L163.206 64.9528L146.605 70.7074L134.378 65.2381L127.098 57.8686Z" fill="#D5D6DB"/>
<path opacity="0.1" d="M124.863 58.4395L127.099 85.1641L150.793 86.3539L149.766 59.7433L149.746 59.2954L124.863 58.4395Z" fill="black"/>
<path d="M124.863 57.8687L127.099 84.5933L150.793 85.7831L149.766 59.1725L149.746 58.7246L124.863 57.8687Z" fill="#FF500A"/>
<path opacity="0.1" d="M181.374 57.8687L156.931 61.532V88.3765L180.817 84.9271L181.374 57.8687Z" fill="black"/>
<path d="M181.374 57.2983L156.931 60.9617V87.8062L180.817 84.3568L181.374 57.2983Z" fill="#FF500A"/>
<path opacity="0.3" d="M175.61 63.8486L162.406 65.3151L162.695 69.8115L175.601 68.4021L175.61 63.8486Z" fill="white"/>
<path d="M128.383 98.9045L129.728 102.519C129.728 102.519 131.726 104.231 133.913 103.375C136.1 102.519 138.007 102.094 138.957 101.261C139.908 100.428 141.241 96.2426 141.241 96.2426C141.241 96.2426 142.574 91.6777 143.905 90.5364C145.235 89.3952 148.758 73.672 143.905 75.2098C139.051 76.7476 135.34 91.0129 135.34 91.0129C135.34 91.0129 134.484 92.0571 133.248 92.1541C132.012 92.2511 129.536 91.963 129.06 93.01C128.583 94.0571 126.956 96.8132 128.383 98.9045Z" fill="#BE6F72"/>
<path opacity="0.1" d="M156.931 61.5292C155.679 61.811 154.379 61.7963 153.135 61.4861C151.89 61.176 150.735 60.5791 149.762 59.7432L150.793 86.3509C150.793 86.3509 153.22 88.9757 156.931 88.3765V61.5292Z" fill="black"/>
<path d="M156.931 60.9589C155.679 61.2407 154.379 61.226 153.135 60.9158C151.89 60.6057 150.735 60.0088 149.762 59.1729L150.793 85.7805C150.793 85.7805 153.22 88.4054 156.931 87.8062V60.9589Z" fill="#FF500A"/>
<path opacity="0.1" d="M156.931 60.9589C155.679 61.2407 154.379 61.226 153.135 60.9158C151.89 60.6057 150.735 60.0088 149.762 59.1729L150.793 85.7805C150.793 85.7805 153.22 88.4054 156.931 87.8062V60.9589Z" fill="black"/>
<path opacity="0.1" d="M157.502 57.96C157.502 57.96 167.445 54.9215 170.037 55.3494L157.502 57.96Z" fill="black"/>
<path opacity="0.1" d="M146.38 56.6333C146.38 56.6333 136.742 54.3509 135.132 54.9985L146.38 56.6333Z" fill="black"/>
<path opacity="0.1" d="M163.771 58.3395C163.771 58.3395 170.42 55.903 172.824 57.0614L163.771 58.3395Z" fill="black"/>
<path opacity="0.1" d="M160.422 119.461C161.453 118.688 162.549 118.007 163.7 117.427C165.413 116.602 168.553 114.462 168.553 114.462" fill="black"/>
<path opacity="0.1" d="M135.132 90.3452C135.132 90.3452 130.961 93.7546 129.708 94.0542C128.454 94.3538 127.681 97.0128 127.681 97.0128" fill="black"/>
<path d="M178.921 98.3964L177.591 102.02C177.591 102.02 175.593 103.732 173.403 102.876C171.214 102.02 169.312 101.595 168.359 100.762C167.405 99.9285 166.075 95.7431 166.075 95.7431C166.075 95.7431 164.745 91.1782 163.411 90.0369C162.078 88.8957 158.558 73.1724 163.411 74.7102C168.265 76.2481 171.976 90.5134 171.976 90.5134C171.976 90.5134 172.832 91.5576 174.068 91.6546C175.304 91.7516 177.78 91.4635 178.256 92.5105C178.733 93.5576 180.349 96.3137 178.921 98.3964Z" fill="#BE6F72"/>
<path opacity="0.1" d="M176.589 91.7319C176.589 91.7319 179.315 93.4837 179.304 95.5779L176.589 91.7319Z" fill="black"/>
<path d="M153.457 40.9532C160.5 40.9532 166.209 35.2472 166.209 28.2085C166.209 21.1698 160.5 15.4639 153.457 15.4639C146.414 15.4639 140.704 21.1698 140.704 28.2085C140.704 35.2472 146.414 40.9532 153.457 40.9532Z" fill="#BE6F72"/>
<path d="M145.449 24.7876C146.996 24.545 148.352 23.6463 149.831 23.1299C153.14 21.9687 156.8 22.7647 160.148 23.8118C161.433 24.2141 162.738 24.6677 164.085 24.6677C165.433 24.6677 166.863 24.1171 167.551 22.9559C168.185 21.8888 168.062 20.5022 167.528 19.381C166.994 18.2597 166.101 17.3582 165.199 16.5079C162.23 13.7062 158.547 11.0871 154.473 11.3724C152.834 11.4894 151.267 12.0743 149.76 12.7219C147.862 13.5393 146.014 14.4692 144.227 15.5065C142.854 16.3025 140.31 17.3667 139.52 18.8218C137.721 22.1 142.651 25.2269 145.449 24.7876Z" fill="#3E373A"/>
<path opacity="0.1" d="M167.551 21.7577C166.863 22.9189 165.433 23.4695 164.085 23.4695C162.738 23.4695 161.433 23.033 160.145 22.6307C156.797 21.5836 153.14 20.7848 149.828 21.9488C148.352 22.4652 146.993 23.3754 145.446 23.6036C143.191 23.9574 139.56 21.9945 139.166 19.498C138.723 22.3825 142.934 24.8533 145.446 24.4595C146.993 24.217 148.352 23.3183 149.828 22.8048C153.14 21.6407 156.797 22.4396 160.145 23.4866C161.433 23.8889 162.735 24.3426 164.085 24.3254C165.435 24.3083 166.863 23.7776 167.551 22.6136C167.907 21.9803 168.048 21.2481 167.95 20.528C167.906 20.9616 167.77 21.3807 167.551 21.7577Z" fill="black"/>
<path d="M271.04 176.379C271.04 176.379 272.733 178.591 270.258 181.931C267.783 185.272 265.744 188.091 266.567 190.174C266.567 190.174 270.301 183.971 273.338 183.883C276.376 183.795 274.377 180.108 271.04 176.379Z" fill="#FF500A"/>
<path opacity="0.1" d="M271.04 176.379C271.188 176.593 271.304 176.826 271.386 177.073C274.349 180.553 275.931 183.803 273.079 183.883C270.424 183.96 267.241 188.705 266.478 189.9C266.503 189.997 266.532 190.092 266.567 190.185C266.567 190.185 270.301 183.983 273.338 183.894C276.376 183.806 274.378 180.108 271.04 176.379Z" fill="black"/>
<path d="M274.18 179.198C274.18 179.977 274.092 180.608 273.986 180.608C273.881 180.608 273.789 179.977 273.789 179.198C273.789 178.42 273.898 178.788 274.006 178.788C274.115 178.788 274.18 178.42 274.18 179.198Z" fill="#FFD037"/>
<path d="M275.262 180.128C274.58 180.499 273.983 180.725 273.932 180.631C273.881 180.536 274.392 180.157 275.074 179.775C275.756 179.392 275.488 179.672 275.539 179.775C275.591 179.877 275.947 179.755 275.262 180.128Z" fill="#FFD037"/>
<path d="M262.093 176.379C262.093 176.379 260.4 178.591 262.875 181.931C265.35 185.272 267.389 188.091 266.564 190.174C266.564 190.174 262.832 183.971 259.792 183.883C256.752 183.795 258.764 180.108 262.093 176.379Z" fill="#FF500A"/>
<path opacity="0.1" d="M262.093 176.379C261.946 176.593 261.829 176.826 261.748 177.073C258.784 180.553 257.203 183.803 260.055 183.883C262.707 183.96 265.893 188.705 266.655 189.9C266.631 189.997 266.601 190.092 266.564 190.185C266.564 190.185 262.832 183.983 259.792 183.894C256.752 183.806 258.764 180.108 262.093 176.379Z" fill="black"/>
<path d="M258.947 179.198C258.947 179.977 259.033 180.608 259.141 180.608C259.25 180.608 259.338 179.977 259.338 179.198C259.338 178.42 259.227 178.788 259.121 178.788C259.016 178.788 258.947 178.42 258.947 179.198Z" fill="#FFD037"/>
<path d="M257.868 180.128C258.55 180.499 259.147 180.725 259.198 180.631C259.25 180.536 258.739 180.157 258.057 179.775C257.374 179.392 257.643 179.672 257.591 179.775C257.54 179.877 257.183 179.755 257.868 180.128Z" fill="#FFD037"/>
<path opacity="0.1" d="M266.567 207.098C276.342 207.098 284.266 205.884 284.266 204.385C284.266 202.887 276.342 201.672 266.567 201.672C256.791 201.672 248.867 202.887 248.867 204.385C248.867 205.884 256.791 207.098 266.567 207.098Z" fill="#FF500A"/>
<path d="M275.676 187.192L275.591 187.883L275.471 188.859L275.422 189.267L275.302 190.242L275.251 190.65L275.134 191.623L273.778 202.722C273.658 203.712 272.039 204.485 270.084 204.485H263.047C261.091 204.485 259.475 203.712 259.353 202.722L257.997 191.623L257.877 190.65L257.828 190.242L257.708 189.267L257.657 188.859L257.54 187.883L257.454 187.192C257.388 186.622 258.262 186.16 259.37 186.16H273.764C274.868 186.16 275.745 186.63 275.676 187.192Z" fill="#65617D"/>
<path d="M275.591 187.883L275.474 188.859H257.66L257.54 187.883H275.591Z" fill="#9D9CB5"/>
<path d="M275.422 189.267L275.305 190.242H257.828L257.708 189.267H275.422Z" fill="#9D9CB5"/>
<path d="M275.254 190.65L275.134 191.626H257.996L257.879 190.65H275.254Z" fill="#9D9CB5"/>
</g>
<defs>
<linearGradient id="paint0_linear" x1="156.055" y1="143.201" x2="156.055" y2="-0.000197809" gradientUnits="userSpaceOnUse">
<stop stop-color="#808080" stop-opacity="0.25"/>
<stop offset="0.54" stop-color="#808080" stop-opacity="0.12"/>
<stop offset="1" stop-color="#808080" stop-opacity="0.1"/>
</linearGradient>
<clipPath id="clip0">
<rect width="292" height="232" fill="white"/>
</clipPath>
</defs>
</svg>
